<?xml version="1.0" encoding="UTF-8"?>
<svg width="112px" height="31px" viewBox="0 0 112 31" version="1.1" xmlns="http://www.w3.org/2000/svg" xmlns:xlink="http://www.w3.org/1999/xlink">
    <!-- Generator: Sketch 43.1 (39012) - http://www.bohemiancoding.com/sketch -->
    <title>remita_footer_logo</title>
    <desc>Created with Sketch.</desc>
    <defs>
        <polygon id="path-1" points="7.57839445 19.4111774 0 19.4111774 0 0.00647039247 15.1567889 0.00647039247 15.1567889 19.4111774"></polygon>
        <polygon id="path-3" points="0.103219831 19.0876578 4.87267101 19.0876578 4.87267101 0.105030646 0.103219831 0.105030646 0.103219831 19.0876578"></polygon>
    </defs>
    <g id="Page-1" stroke="none" stroke-width="1" fill="none" fill-rule="evenodd">
        <g id="Remita_Web" transform="translate(-215.000000, -4301.000000)">
            <g id="Group-32" transform="translate(0.000000, 4226.000000)">
                <g id="remita_footer_logo" transform="translate(215.000000, 75.000000)">
                    <path d="M100.892939,26.3972601 C97.5684352,26.6562376 94.806281,24.4742595 94.806281,20.6656247 C94.806281,16.861034 97.5627252,14.7224075 100.882335,14.9711941 C107.753542,15.4857521 107.762352,25.8623205 100.892939,26.3972601 L100.892939,26.3972601 Z M111.489164,12.067929 L111.487206,12.067929 L111.487206,11.6695146 C111.487206,11.4590651 111.313623,11.2885702 111.099255,11.2885702 L107.109458,11.2885702 C106.895253,11.2885702 106.721507,11.4590651 106.721507,11.6695146 L106.721507,12.0543412 L106.723791,12.0562823 L106.721507,12.0562823 L106.721507,12.1497795 C106.70193,12.3358032 106.479894,12.3946838 106.346444,12.2623643 C105.565484,11.4880201 102.983275,10.7714241 100.629465,10.7714241 C95.004172,10.733087 90.5902069,14.1463808 90.5902069,20.6656247 C90.5902069,27.2998799 94.8087281,30.7511872 100.512329,30.7133354 C102.636599,30.6751601 105.074427,30.4147268 106.721344,28.2586303 L106.721344,30.3966097 C106.721344,30.6068975 106.895253,30.7773923 107.109458,30.7773923 L111.099255,30.7773923 C111.313623,30.7773923 111.487206,30.6068975 111.487206,30.3966097 L111.487206,29.6701464 L111.489164,29.0231072 L111.489164,12.067929 Z" id="Fill-1" fill="#F16521"></path>
                    <path d="M19.2387115,22.3529413 C19.5511281,24.69215 21.6217241,26.3797901 24.9809774,26.3797901 C26.7388305,26.3797901 29.043535,25.7275745 30.1374009,24.6157993 L33.1844008,27.5684012 C31.1531219,29.6392503 27.8325333,30.6363378 24.9026693,30.6363378 C18.2618183,30.6363378 14.3163964,26.6096508 14.3163964,20.5504518 C14.3163964,14.7982729 18.3011354,10.6565746 24.5512618,10.6565746 C30.9969952,10.6565746 35.0202357,14.5682504 34.2782667,22.3529413 L19.2387115,22.3529413 Z M29.7076854,18.4796026 C29.3952688,16.0253828 27.4421349,14.7982729 24.7075517,14.7982729 C22.1292583,14.7982729 20.0196714,16.0253828 19.3166933,18.4796026 L29.7076854,18.4796026 Z" id="Fill-3" fill="#F16521"></path>
                    <g id="Group-7" transform="translate(0.000000, 11.373818)">
                        <mask id="mask-2" fill="white">
                            <use xlink:href="#path-1"></use>
                        </mask>
                        <g id="Clip-6"></g>
                        <path d="M10.1958092,0.00647039247 C8.24283846,0.00647039247 6.2500611,0.35182759 4.76595994,2.69103623 L4.76595994,0.84179806 C4.76595994,0.631510305 4.5922139,0.461015463 4.37784555,0.461015463 L0.388212281,0.461015463 C0.173843926,0.461015463 -6.5256729e-05,0.631510305 -6.5256729e-05,0.84179806 L-6.5256729e-05,1.96716107 L-6.5256729e-05,2.66919865 L-6.5256729e-05,3.29197393 L-6.5256729e-05,5.12827131 L-6.5256729e-05,15.6365122 L-6.5256729e-05,16.6240558 L0.0045027143,16.6290704 L-6.5256729e-05,16.6316586 L-6.5256729e-05,18.0174549 L-6.5256729e-05,19.0300713 C-6.5256729e-05,19.2405208 0.173843926,19.4111774 0.388212281,19.4111774 L4.37784555,19.4111774 C4.5922139,19.4111774 4.76595994,19.2405208 4.76595994,19.0300713 L4.76595994,17.0577339 C4.76595994,16.9621339 4.77721673,16.8715484 4.76595994,16.7793453 L4.76595994,13.8448605 L4.76595994,9.44030261 C4.76595994,5.95098171 7.07050133,4.64687411 9.57064976,4.64687411 C11.133059,4.64687411 12.0316441,5.06858194 13.0085374,5.87382228 L15.1567889,1.80895997 C14.1022402,0.773535419 12.1877709,0.00647039247 10.1958092,0.00647039247" id="Fill-5" fill="#F16521" mask="url(#mask-2)"></path>
                    </g>
                    <g id="Group-10" transform="translate(69.172133, 11.697337)">
                        <mask id="mask-4" fill="white">
                            <use xlink:href="#path-3"></use>
                        </mask>
                        <g id="Clip-9"></g>
                        <path d="M4.87267101,16.7061166 L4.87267101,8.96364497 L4.87087645,8.96364497 L4.87087645,0.485813242 C4.87087645,0.275525487 4.69713041,0.105030646 4.48259891,0.105030646 L0.493128787,0.105030646 C0.278760432,0.105030646 0.104688107,0.275525487 0.104688107,0.485813242 L0.104688107,13.1328424 C0.104688107,13.1394745 0.106645809,13.1457831 0.106972093,13.1524153 L0.106972093,16.3005848 L0.113334624,16.3081875 L0.104688107,16.3081875 L0.104688107,16.712587 C0.104198682,16.7235867 0.103219831,16.7350716 0.103219831,16.7465566 C0.103219831,16.7578797 0.104198682,16.7692029 0.104688107,16.7805261 L0.104688107,18.7066002 C0.104688107,18.9170497 0.278760432,19.0877063 0.493128787,19.0877063 L4.48259891,19.0877063 C4.69713041,19.0877063 4.87087645,18.9170497 4.87087645,18.7066002 L4.87087645,16.7813349 C4.87103959,16.7695264 4.87267101,16.7580415 4.87267101,16.7465566 C4.87267101,16.7350716 4.87152902,16.7235867 4.87087645,16.7124252 L4.87087645,16.7062784 L4.87267101,16.7061166 Z" id="Fill-8" fill="#F16521" mask="url(#mask-4)"></path>
                    </g>
                    <path d="M58.2380415,11.6105369 C55.7380562,11.6105369 53.5113335,12.3772785 51.7924712,15.0618443 C50.6986053,12.4539526 48.3939008,11.5338628 46.0891963,11.5338628 C44.253035,11.5338628 42.0264755,12.2239302 41.0110808,14.141431 L41.0110808,12.2156804 C41.0110808,12.0052309 40.8371716,11.834736 40.6228032,11.834736 L36.6331699,11.834736 C36.4188016,11.834736 36.2450556,12.0052309 36.2450556,12.2156804 L36.2450556,14.6273574 L36.2450556,16.5021537 L36.2450556,26.1100394 L36.2450556,27.9979382 L36.2450556,30.3965127 C36.2450556,30.6068004 36.4188016,30.777457 36.6331699,30.777457 L40.6228032,30.777457 C40.8371716,30.777457 41.0110808,30.6068004 41.0110808,30.3965127 L41.0110808,27.9979382 L41.0110808,20.6609984 C41.0110808,18.168118 42.5344991,15.9055835 45.1126293,15.9055835 C47.7297504,15.9055835 49.0580511,18.168118 49.0580511,20.6609984 L49.0580511,27.9979382 L49.0702868,28.0123348 L49.0702868,30.4039536 C49.0702868,30.6144031 49.2440328,30.784898 49.4584012,30.784898 L53.4480344,30.784898 C53.6624028,30.784898 53.836312,30.6144031 53.836312,30.4039536 L53.836312,25.2187429 L53.8237501,25.2187429 L53.8237501,20.6609984 C53.8237501,18.168118 55.4253133,15.9822576 58.0036067,15.9822576 C60.5817369,15.9822576 61.6366119,18.0914438 61.6366119,20.5840007 L61.6366119,26.1100394 L61.6362857,26.1100394 L61.6362857,30.3965127 C61.6362857,30.6068004 61.8101948,30.777457 62.0244001,30.777457 L66.0140333,30.777457 C66.2285648,30.777457 66.4023109,30.6068004 66.4023109,30.3965127 L66.4023109,27.9979382 L66.4023109,26.1100394 L66.4023109,20.5840007 C66.4023109,14.908496 63.7068817,11.6105369 58.2380415,11.6105369" id="Fill-11" fill="#F16521"></path>
                    <path d="M53.8050214,7.89590081 C52.8467263,8.84607794 51.2929636,8.84607794 50.3346685,7.89590081 C49.3763735,6.94572367 49.3763735,5.40512323 50.3346685,4.45494609 C51.2929636,3.50476896 52.8467263,3.50476896 53.8050214,4.45494609 C54.7633164,5.40512323 54.7633164,6.94572367 53.8050214,7.89590081" id="Fill-13" fill="#F16521"></path>
                    <path d="M53.8050214,4.45502697 C54.7633164,5.40520411 54.7633164,6.94580455 53.8050214,7.89598169 C52.8467263,8.84615882 51.2929636,8.84615882 50.3346685,7.89598169" id="Fill-15" fill="#D95129"></path>
                    <path d="M63.6860974,7.6632902 C62.4150595,8.92356089 60.354252,8.92356089 59.083214,7.6632902 C57.8123392,6.40301951 57.8123392,4.35966956 59.083214,3.09939887 C60.354252,1.83928994 62.4150595,1.83928994 63.6860974,3.09939887 C64.9571353,4.35966956 64.9571353,6.40301951 63.6860974,7.6632902" id="Fill-17" fill="#F16521"></path>
                    <path d="M63.6860974,3.09949593 C64.9571353,4.35976662 64.9571353,6.40311656 63.6860974,7.66338725 C62.4150595,8.92349619 60.354252,8.92349619 59.083214,7.66338725" id="Fill-19" fill="#D95129"></path>
                    <path d="M74.8804161,7.34782621 C73.1852095,9.02867242 70.4367592,9.02867242 68.7412262,7.34782621 C67.0461827,5.66698001 67.0461827,2.9416507 68.7412262,1.26064274 C70.4367592,-0.420203463 73.1852095,-0.420203463 74.8804161,1.26064274 C76.575786,2.9416507 76.575786,5.66698001 74.8804161,7.34782621" id="Fill-21" fill="#1CA78B"></path>
                    <path d="M74.8804161,1.26075597 C76.575786,2.94160218 76.575786,5.66693148 74.8804161,7.34793945 C73.1852095,9.02878565 70.4367592,9.02878565 68.7412262,7.34793945" id="Fill-23" fill="#168972"></path>
                    <path d="M89.4738111,25.6214763 C89.4738111,25.6214763 88.5946398,25.9040707 88.0318005,26.0430223 C87.4694506,26.1827828 86.9885086,26.2526631 86.5902794,26.2526631 C86.2853673,26.2526631 85.9980745,26.2177229 85.7287274,26.1481662 C85.4587277,26.0781242 85.2189092,25.9506575 85.0076405,25.7646337 C84.7966982,25.5787717 84.626215,25.3230294 84.4976592,24.9974069 C84.3687772,24.6721079 84.3044993,24.2536353 84.3044993,23.7421508 L84.3044993,13.5742525 L89.2064216,13.5742525 C89.4186691,13.5742525 89.5906206,13.4018166 89.5906206,13.1894259 L89.5906206,9.23358975 C89.5906206,9.02103735 89.4186691,8.84860139 89.2064216,8.84860139 L84.3044993,8.84860139 L84.3044993,3.04498287 L82.6515463,3.04498287 C82.2764833,5.16031593 81.5792151,6.88030801 80.5594156,8.20512086 C79.5396161,9.530419 78.2088682,10.5299329 76.5681509,11.2038243 L76.5681509,13.470241 L79.2405771,13.470241 L79.2405771,23.3935584 C79.2405771,24.6488145 79.3518398,25.7416638 79.5748547,26.6708122 C79.7973802,27.6007693 80.154987,28.3679961 80.6471859,28.9723308 C81.1395479,29.5769889 81.7955412,30.0242548 82.6163077,30.3146137 C83.4367479,30.6048108 85.0011149,30.7738498 86.1962919,30.7505564 C89.029739,30.6953963 90.1710792,29.9360957 90.68726,29.6099879 L89.4738111,25.6214763 Z" id="Fill-25" fill="#F16521"></path>
                </g>
            </g>
        </g>
    </g>
</svg>